<svg width="20" height="18" viewBox="0 0 20 18" fill="none" xmlns="http://www.w3.org/2000/svg">
<path d="M11.5 13.8889H2V7.93651H12.3C13.3 6.74603 14.8 5.95238 16.5 5.95238C17.8 5.95238 19 6.44841 20 7.24206V1.98413C20 1.4579 19.7893 0.953233 19.4142 0.581137C19.0391 0.209041 18.5304 0 18 0H2C1.46957 0 0.960859 0.209041 0.585786 0.581137C0.210714 0.953233 0 1.4579 0 1.98413V13.8889C0 14.4151 0.210714 14.9198 0.585786 15.2919C0.960859 15.664 1.46957 15.873 2 15.873H12.6C12.2 15.2778 11.8 14.5833 11.5 13.8889ZM2 1.98413H18V3.96825H2V1.98413ZM16.5 7.93651C14.6 7.93651 13 9.52381 13 11.4087C13 13.9881 16.5 17.8571 16.5 17.8571C16.5 17.8571 20 13.9881 20 11.4087C20 9.52381 18.4 7.93651 16.5 7.93651ZM16.5 12.6984C15.8 12.6984 15.3 12.1032 15.3 11.5079C15.3 10.8135 15.9 10.3175 16.5 10.3175C17.1 10.3175 17.7 10.9127 17.7 11.5079C17.8 12.1032 17.2 12.6984 16.5 12.6984Z" fill="#BDBDBD"/>
</svg>
