<svg width="22" height="22" viewBox="0 0 22 22" fill="none" xmlns="http://www.w3.org/2000/svg">
<path d="M20.6294 0C20.9611 0 21.2455 0.118671 21.4824 0.356013C21.7194 0.593354 21.8379 0.878165 21.8379 1.21044V20.663C21.8379 20.9953 21.7194 21.2801 21.4824 21.5174C21.2455 21.7548 20.9611 21.8734 20.6294 21.8734H15.0704V13.4003H17.8996L18.3262 10.0965H15.0704V7.98893C15.0704 7.45728 15.1794 7.05855 15.3974 6.79273C15.6249 6.5269 16.0609 6.39399 16.7054 6.39399L18.4399 6.37975V3.43196C17.8428 3.34652 16.9992 3.3038 15.9092 3.3038C14.6202 3.3038 13.587 3.68355 12.8098 4.44304C12.0421 5.20253 11.6582 6.27532 11.6582 7.6614V10.0965H8.81476V13.4003H11.6582V21.8734H1.20847C0.876737 21.8734 0.59239 21.7548 0.355434 21.5174C0.118478 21.2801 0 20.9953 0 20.663V1.21044C0 0.878165 0.118478 0.593354 0.355434 0.356013C0.59239 0.118671 0.876737 0 1.20847 0H20.6294Z" fill="white"/>
</svg>
