<svg width="22" height="22" viewBox="0 0 22 22" fill="none" xmlns="http://www.w3.org/2000/svg">
<path d="M13.4923 13.5142C14.2031 12.8022 14.5586 11.943 14.5586 10.9367C14.5586 9.93039 14.2031 9.07121 13.4923 8.35918C12.7814 7.64716 11.9236 7.29114 10.9189 7.29114C9.91423 7.29114 9.05645 7.64716 8.34558 8.35918C7.63472 9.07121 7.27928 9.93039 7.27928 10.9367C7.27928 11.943 7.63472 12.8022 8.34558 13.5142C9.05645 14.2263 9.91423 14.5823 10.9189 14.5823C11.9236 14.5823 12.7814 14.2263 13.4923 13.5142ZM14.8856 6.96361C15.9756 8.05538 16.5206 9.37975 16.5206 10.9367C16.5206 12.4937 15.9756 13.818 14.8856 14.9098C13.7956 16.0016 12.4734 16.5475 10.9189 16.5475C9.3645 16.5475 8.04228 16.0016 6.95228 14.9098C5.86229 13.818 5.31729 12.4937 5.31729 10.9367C5.31729 9.37975 5.86229 8.05538 6.95228 6.96361C8.04228 5.87184 9.3645 5.32595 10.9189 5.32595C12.4734 5.32595 13.7956 5.87184 14.8856 6.96361ZM17.6722 4.17247C17.9281 4.4288 18.056 4.73735 18.056 5.09811C18.056 5.45886 17.9281 5.76741 17.6722 6.02374C17.4163 6.28007 17.1082 6.40823 16.748 6.40823C16.3879 6.40823 16.0798 6.28007 15.8239 6.02374C15.568 5.76741 15.44 5.45886 15.44 5.09811C15.44 4.73735 15.568 4.4288 15.8239 4.17247C16.0798 3.91614 16.3879 3.78798 16.748 3.78798C17.1082 3.78798 17.4163 3.91614 17.6722 4.17247ZM11.9994 1.96519C11.3454 1.96519 10.9853 1.96519 10.9189 1.96519C10.8526 1.96519 10.4877 1.96519 9.82419 1.96519C9.17019 1.9557 8.67258 1.9557 8.33137 1.96519C7.99015 1.96519 7.53046 1.97943 6.95228 2.00791C6.38359 2.0269 5.89546 2.07437 5.4879 2.15032C5.08981 2.21677 4.75333 2.30222 4.47847 2.40665C4.00455 2.59652 3.58751 2.87184 3.22734 3.2326C2.86717 3.59336 2.5923 4.01108 2.40273 4.48576C2.29847 4.76108 2.20843 5.10285 2.1326 5.51108C2.06625 5.90981 2.01886 6.39874 1.99043 6.97785C1.97147 7.54747 1.95726 8.00317 1.94778 8.34494C1.94778 8.68672 1.94778 9.18988 1.94778 9.85444C1.95726 10.5095 1.96199 10.8703 1.96199 10.9367C1.96199 11.0032 1.95726 11.3687 1.94778 12.0332C1.94778 12.6883 1.94778 13.1867 1.94778 13.5285C1.95726 13.8703 1.97147 14.3307 1.99043 14.9098C2.01886 15.4794 2.06625 15.9684 2.1326 16.3766C2.20843 16.7753 2.29847 17.1124 2.40273 17.3877C2.5923 17.8624 2.86717 18.2801 3.22734 18.6408C3.58751 19.0016 4.00455 19.2769 4.47847 19.4668C4.75333 19.5712 5.08981 19.6614 5.4879 19.7374C5.89546 19.8038 6.38359 19.8513 6.95228 19.8798C7.53046 19.8987 7.99015 19.913 8.33137 19.9225C8.67258 19.9225 9.17019 19.9225 9.82419 19.9225C10.4877 19.913 10.8526 19.9082 10.9189 19.9082C10.9853 19.9082 11.3454 19.913 11.9994 19.9225C12.6629 19.9225 13.1653 19.9225 13.5065 19.9225C13.8477 19.913 14.3027 19.8987 14.8713 19.8798C15.4495 19.8513 15.9377 19.8038 16.3357 19.7374C16.7433 19.6614 17.0845 19.5712 17.3594 19.4668C17.8333 19.2769 18.2503 19.0016 18.6105 18.6408C18.9707 18.2801 19.2456 17.8624 19.4351 17.3877C19.5394 17.1124 19.6247 16.7753 19.691 16.3766C19.7669 15.9684 19.8142 15.4794 19.8332 14.9098C19.8616 14.3307 19.8759 13.8703 19.8759 13.5285C19.8853 13.1867 19.8853 12.6883 19.8759 12.0332C19.8759 11.3687 19.8759 11.0032 19.8759 10.9367C19.8759 10.8703 19.8759 10.5095 19.8759 9.85444C19.8853 9.18988 19.8853 8.68672 19.8759 8.34494C19.8759 8.00317 19.8616 7.54747 19.8332 6.97785C19.8142 6.39874 19.7669 5.90981 19.691 5.51108C19.6247 5.10285 19.5394 4.76108 19.4351 4.48576C19.2456 4.01108 18.9707 3.59336 18.6105 3.2326C18.2503 2.87184 17.8333 2.59652 17.3594 2.40665C17.0845 2.30222 16.7433 2.21677 16.3357 2.15032C15.9377 2.07437 15.4495 2.0269 14.8713 2.00791C14.3027 1.97943 13.8477 1.96519 13.5065 1.96519C13.1653 1.9557 12.6629 1.9557 11.9994 1.96519ZM21.7668 6.42247C21.8142 7.25792 21.8379 8.76266 21.8379 10.9367C21.8379 13.1108 21.8142 14.6155 21.7668 15.451C21.672 17.4256 21.0843 18.9541 20.0038 20.0364C18.9233 21.1187 17.3973 21.7073 15.4258 21.8022C14.5917 21.8497 13.0894 21.8734 10.9189 21.8734C8.74841 21.8734 7.24611 21.8497 6.41203 21.8022C4.44055 21.7073 2.91456 21.1187 1.83404 20.0364C0.753519 18.9541 0.165869 17.4256 0.0710867 15.451C0.0236956 14.6155 0 13.1108 0 10.9367C0 8.76266 0.0236956 7.25792 0.0710867 6.42247C0.165869 4.44779 0.753519 2.91931 1.83404 1.83703C2.91456 0.754747 4.44055 0.166139 6.41203 0.0712034C7.24611 0.0237345 8.74841 0 10.9189 0C13.0894 0 14.5917 0.0237345 15.4258 0.0712034C17.3973 0.166139 18.9233 0.754747 20.0038 1.83703C21.0843 2.91931 21.672 4.44779 21.7668 6.42247Z" fill="white"/>
</svg>
