<svg width="25" height="36" viewBox="0 0 25 36" fill="none" xmlns="http://www.w3.org/2000/svg">
<path d="M23.2143 10.8C23.2143 4.842 18.4107 0 12.5 0C6.58929 0 1.78571 4.842 1.78571 10.8C1.78571 18.9 12.5 30.6 12.5 30.6C12.5 30.6 23.2143 18.9 23.2143 10.8ZM8.92857 10.8C8.92857 8.82 10.5357 7.2 12.5 7.2C14.4643 7.2 16.0714 8.82 16.0714 10.8C16.0714 11.7548 15.6952 12.6705 15.0254 13.3456C14.3556 14.0207 13.4472 14.4 12.5 14.4C11.5528 14.4 10.6444 14.0207 9.97462 13.3456C9.30485 12.6705 8.92857 11.7548 8.92857 10.8ZM0 32.4V36H25V32.4H0Z" fill="black"/>
</svg>
