<svg width="20" height="20" viewBox="0 0 20 20" fill="none" xmlns="http://www.w3.org/2000/svg">
<path d="M14.4444 14H10V17L4.44444 12L10 7V10H14.4444V14ZM10 2C10.2947 2 10.5773 2.10536 10.7857 2.29289C10.994 2.48043 11.1111 2.73478 11.1111 3C11.1111 3.26522 10.994 3.51957 10.7857 3.70711C10.5773 3.89464 10.2947 4 10 4C9.70532 4 9.4227 3.89464 9.21433 3.70711C9.00595 3.51957 8.88889 3.26522 8.88889 3C8.88889 2.73478 9.00595 2.48043 9.21433 2.29289C9.4227 2.10536 9.70532 2 10 2ZM17.7778 2H13.1333C12.6667 0.84 11.4444 0 10 0C8.55556 0 7.33333 0.84 6.86667 2H2.22222C1.63285 2 1.06762 2.21071 0.650874 2.58579C0.234126 2.96086 0 3.46957 0 4V18C0 18.5304 0.234126 19.0391 0.650874 19.4142C1.06762 19.7893 1.63285 20 2.22222 20H17.7778C18.3671 20 18.9324 19.7893 19.3491 19.4142C19.7659 19.0391 20 18.5304 20 18V4C20 3.46957 19.7659 2.96086 19.3491 2.58579C18.9324 2.21071 18.3671 2 17.7778 2Z" fill="#BDBDBD"/>
</svg>
