<svg width="23" height="19" viewBox="0 0 23 19" fill="none" xmlns="http://www.w3.org/2000/svg">
<path d="M22.4065 2.16456C21.7715 3.09494 21.0038 3.88766 20.1033 4.54272C20.1128 4.67563 20.1176 4.875 20.1176 5.14083C20.1176 6.375 19.9375 7.60918 19.5773 8.84336C19.2171 10.068 18.6674 11.2453 17.9281 12.375C17.1983 13.5048 16.3263 14.5063 15.3121 15.3798C14.2979 16.2437 13.0752 16.9367 11.644 17.4589C10.2128 17.9715 8.68206 18.2279 7.05181 18.2279C4.4832 18.2279 2.1326 17.5396 0 16.163C0.331738 16.201 0.701389 16.2199 1.10895 16.2199C3.24156 16.2199 5.14194 15.5649 6.81011 14.2548C5.8149 14.2358 4.92394 13.932 4.13725 13.3434C3.35056 12.7453 2.8103 11.9858 2.51647 11.0649C2.82925 11.1123 3.11834 11.1361 3.38373 11.1361C3.79129 11.1361 4.19412 11.0839 4.5922 10.9794C3.53064 10.7611 2.64917 10.2342 1.94778 9.39874C1.25587 8.5538 0.90991 7.57595 0.90991 6.46519V6.40823C1.55443 6.76899 2.24634 6.96361 2.98564 6.99209C2.36008 6.57437 1.86247 6.02848 1.49282 5.35443C1.12317 4.68038 0.938345 3.94937 0.938345 3.16139C0.938345 2.32595 1.14687 1.55222 1.56391 0.840191C2.71078 2.25475 4.10408 3.38924 5.74381 4.24367C7.39302 5.08861 9.15597 5.55855 11.0327 5.65348C10.9568 5.29272 10.9189 4.94146 10.9189 4.59969C10.9189 3.32753 11.3644 2.24525 12.2554 1.35285C13.1558 0.45095 14.241 0 15.5111 0C16.8381 0 17.9565 0.484177 18.8664 1.45253C19.8996 1.25317 20.8711 0.882912 21.781 0.341773C21.4303 1.43355 20.7573 2.27848 19.7621 2.87658C20.6436 2.78165 21.5251 2.54431 22.4065 2.16456Z" fill="white"/>
</svg>
