<svg width="26" height="18" viewBox="0 0 26 18" fill="none" xmlns="http://www.w3.org/2000/svg">
<path d="M10.1092 12.2753L16.9904 8.71519L10.1092 5.11234V12.2753ZM12.7395 0C14.3318 0 15.8673 0.023734 17.3459 0.0712019C18.834 0.109176 19.924 0.151898 20.6159 0.199367L21.6537 0.256329C21.6632 0.256329 21.7438 0.265822 21.8954 0.284809C22.0471 0.294304 22.1561 0.308544 22.2224 0.327531C22.2888 0.337024 22.3978 0.356012 22.5494 0.384493C22.7106 0.412974 22.848 0.450949 22.9617 0.498418C23.0755 0.545886 23.2082 0.607594 23.3598 0.683544C23.5115 0.759494 23.6584 0.854431 23.8006 0.968354C23.9427 1.07278 24.0802 1.1962 24.2129 1.33861C24.2697 1.39557 24.3408 1.48576 24.4261 1.60918C24.5209 1.7231 24.6583 1.99842 24.8384 2.43513C25.028 2.87184 25.1559 3.35127 25.2223 3.87342C25.2981 4.48101 25.355 5.13133 25.3929 5.82437C25.4403 6.50791 25.4687 7.04431 25.4782 7.43355V8.00317V9.93988C25.4877 11.3165 25.4024 12.693 25.2223 14.0696C25.1559 14.5918 25.0375 15.0665 24.8669 15.4937C24.6962 15.9114 24.5446 16.201 24.4119 16.3624L24.2129 16.6044C24.0802 16.7468 23.9427 16.875 23.8006 16.9889C23.6584 17.0934 23.5115 17.1836 23.3598 17.2595C23.2082 17.326 23.0755 17.3829 22.9617 17.4304C22.848 17.4779 22.7106 17.5158 22.5494 17.5443C22.3978 17.5728 22.284 17.5965 22.2082 17.6155C22.1419 17.625 22.0329 17.6392 21.8812 17.6582C21.739 17.6677 21.6632 17.6725 21.6537 17.6725C19.2747 17.8529 16.3033 17.943 12.7395 17.943C10.7775 17.9241 9.07138 17.8956 7.62121 17.8576C6.18052 17.8101 5.2327 17.7722 4.77774 17.7437L4.08109 17.6867L3.56927 17.6298C3.22805 17.5823 2.9674 17.5348 2.78731 17.4874C2.6167 17.4399 2.37501 17.3402 2.06223 17.1883C1.75892 17.0364 1.49353 16.8418 1.26605 16.6044C1.20919 16.5475 1.13336 16.462 1.03858 16.3481C0.953273 16.2247 0.815839 15.9446 0.626274 15.5079C0.446188 15.0712 0.322971 14.5918 0.256623 14.0696C0.180797 13.462 0.119189 12.8165 0.0717976 12.1329C0.0338847 11.4399 0.0101891 10.8987 0.000710867 10.5095V9.93988V8.00317C-0.00876737 6.62659 0.0765368 5.25 0.256623 3.87342C0.322971 3.35127 0.441449 2.88133 0.612057 2.46361C0.782665 2.03639 0.934317 1.74209 1.06701 1.5807L1.26605 1.33861C1.39875 1.1962 1.53618 1.07278 1.67836 0.968354C1.82053 0.854431 1.96744 0.759494 2.1191 0.683544C2.27075 0.607594 2.40344 0.545886 2.51718 0.498418C2.63092 0.450949 2.76362 0.412974 2.91527 0.384493C3.0764 0.356012 3.19014 0.337024 3.25648 0.327531C3.32283 0.308544 3.43183 0.294304 3.58348 0.284809C3.73514 0.265822 3.8157 0.256329 3.82518 0.256329C6.20422 0.085443 9.17564 0 12.7395 0Z" fill="white"/>
</svg>
